<svg width="217" height="115" viewBox="0 0 217 115" fill="none" xmlns="http://www.w3.org/2000/svg">
<path d="M64.3737 37.9095L79.19 52.2375C81.1656 54.1502 83.6862 55.3532 86.3769 55.6676C89.0677 55.9821 91.7848 55.3912 94.1242 53.9828L153.625 18.2644L146.315 9.01012C144.414 6.61158 141.744 4.99453 138.789 4.45114C135.834 3.90774 132.788 4.47382 130.202 6.04712L112.753 16.6409L89.1724 8.52305L82.6878 11.4049C82.2027 11.6196 81.7777 11.957 81.452 12.386C81.1263 12.815 80.9105 13.3217 80.8244 13.8596C80.7382 14.3974 80.7846 14.9489 80.9591 15.4634C81.1337 15.9778 81.4308 16.4386 81.8232 16.8032L93.8884 28.0058L82.8843 34.5001L71.8801 29.6294L65.2777 32.5518C64.7973 32.7649 64.376 33.0983 64.0518 33.522C63.7277 33.9456 63.5109 34.446 63.4212 34.9779C63.3314 35.5098 63.3715 36.0565 63.5379 36.5684C63.7042 37.0802 63.9915 37.5412 64.3737 37.9095V37.9095Z" stroke="white" stroke-width="8.35135" stroke-linecap="round" stroke-linejoin="round"/>
<path d="M10.796 106.75V80.5682H21.7136C23.6738 80.5682 25.3145 80.8452 26.6355 81.3992C27.965 81.9531 28.9622 82.7287 29.627 83.7259C30.3002 84.723 30.6369 85.8779 30.6369 87.1904C30.6369 88.1875 30.4281 89.0781 30.0105 89.8622C29.5929 90.6378 29.0176 91.2813 28.2846 91.7926C27.5517 92.304 26.7037 92.6619 25.7406 92.8665V93.1222C26.7974 93.1733 27.7733 93.4588 28.6681 93.9787C29.5716 94.4986 30.296 95.223 30.8414 96.152C31.3869 97.0725 31.6596 98.1634 31.6596 99.4247C31.6596 100.831 31.3017 102.088 30.5858 103.196C29.8699 104.295 28.8343 105.165 27.4792 105.804C26.1241 106.435 24.4792 106.75 22.5446 106.75H10.796ZM17.1241 101.649H21.036C22.4082 101.649 23.4181 101.389 24.0659 100.869C24.7221 100.349 25.0502 99.625 25.0502 98.696C25.0502 98.0227 24.8926 97.4432 24.5772 96.9574C24.2619 96.4631 23.8145 96.0838 23.2349 95.8196C22.6554 95.5469 21.9608 95.4105 21.1511 95.4105H17.1241V101.649ZM17.1241 91.3324H20.627C21.3173 91.3324 21.9309 91.2173 22.4679 90.9872C23.0048 90.7571 23.4224 90.4247 23.7207 89.9901C24.0275 89.5554 24.1809 89.0313 24.1809 88.4176C24.1809 87.5398 23.8699 86.8494 23.2477 86.3466C22.6255 85.8438 21.786 85.5923 20.7292 85.5923H17.1241V91.3324ZM43.8684 107.121C41.8059 107.121 40.0332 106.699 38.5502 105.855C37.0758 105.003 35.938 103.818 35.1369 102.301C34.3443 100.776 33.948 99.0071 33.948 96.9958C33.948 94.9759 34.3443 93.2074 35.1369 91.6904C35.938 90.1648 37.0758 88.9801 38.5502 88.1364C40.0332 87.2841 41.8059 86.858 43.8684 86.858C45.9309 86.858 47.6994 87.2841 49.1738 88.1364C50.6568 88.9801 51.7946 90.1648 52.5872 91.6904C53.3883 93.2074 53.7889 94.9759 53.7889 96.9958C53.7889 99.0071 53.3883 100.776 52.5872 102.301C51.7946 103.818 50.6568 105.003 49.1738 105.855C47.6994 106.699 45.9309 107.121 43.8684 107.121ZM43.9068 102.403C44.6568 102.403 45.2917 102.173 45.8116 101.713C46.3315 101.253 46.7278 100.614 47.0005 99.7955C47.2818 98.9773 47.4224 98.0313 47.4224 96.9574C47.4224 95.8665 47.2818 94.9119 47.0005 94.0938C46.7278 93.2756 46.3315 92.6364 45.8116 92.1762C45.2917 91.7159 44.6568 91.4858 43.9068 91.4858C43.1312 91.4858 42.475 91.7159 41.938 92.1762C41.4096 92.6364 41.0048 93.2756 40.7235 94.0938C40.4508 94.9119 40.3145 95.8665 40.3145 96.9574C40.3145 98.0313 40.4508 98.9773 40.7235 99.7955C41.0048 100.614 41.4096 101.253 41.938 101.713C42.475 102.173 43.1312 102.403 43.9068 102.403ZM66.1575 107.121C64.095 107.121 62.3223 106.699 60.8393 105.855C59.3649 105.003 58.2271 103.818 57.426 102.301C56.6333 100.776 56.237 99.0071 56.237 96.9958C56.237 94.9759 56.6333 93.2074 57.426 91.6904C58.2271 90.1648 59.3649 88.9801 60.8393 88.1364C62.3223 87.2841 64.095 86.858 66.1575 86.858C68.22 86.858 69.9885 87.2841 71.4629 88.1364C72.9458 88.9801 74.0836 90.1648 74.8762 91.6904C75.6774 93.2074 76.0779 94.9759 76.0779 96.9958C76.0779 99.0071 75.6774 100.776 74.8762 102.301C74.0836 103.818 72.9458 105.003 71.4629 105.855C69.9885 106.699 68.22 107.121 66.1575 107.121ZM66.1958 102.403C66.9458 102.403 67.5808 102.173 68.1007 101.713C68.6206 101.253 69.0169 100.614 69.2896 99.7955C69.5708 98.9773 69.7115 98.0313 69.7115 96.9574C69.7115 95.8665 69.5708 94.9119 69.2896 94.0938C69.0169 93.2756 68.6206 92.6364 68.1007 92.1762C67.5808 91.7159 66.9458 91.4858 66.1958 91.4858C65.4203 91.4858 64.764 91.7159 64.2271 92.1762C63.6987 92.6364 63.2939 93.2756 63.0126 94.0938C62.7399 94.9119 62.6035 95.8665 62.6035 96.9574C62.6035 98.0313 62.7399 98.9773 63.0126 99.7955C63.2939 100.614 63.6987 101.253 64.2271 101.713C64.764 102.173 65.4203 102.403 66.1958 102.403ZM84.9181 101.598L84.9437 94.1449H85.813L91.3358 87.1137H98.4181L90.2108 97.1875H88.5616L84.9181 101.598ZM79.2804 106.75V80.5682H85.5318V106.75H79.2804ZM91.4764 106.75L86.3372 98.5938L90.4537 94.1577L98.6994 106.75H91.4764ZM108.39 106.75V80.5682H126.262V85.7074H114.718V91.0767H125.124V96.2287H114.718V106.75H108.39ZM135.7 80.5682V106.75H129.448V80.5682H135.7ZM139.679 106.75V87.1137H145.93V106.75H139.679ZM142.811 84.8253C141.933 84.8253 141.179 84.5355 140.548 83.956C139.917 83.3679 139.602 82.6605 139.602 81.8338C139.602 81.0156 139.917 80.3168 140.548 79.7372C141.179 79.1492 141.933 78.8551 142.811 78.8551C143.697 78.8551 144.452 79.1492 145.074 79.7372C145.704 80.3168 146.02 81.0156 146.02 81.8338C146.02 82.6605 145.704 83.3679 145.074 83.956C144.452 84.5355 143.697 84.8253 142.811 84.8253ZM159.063 114.523C157.196 114.523 155.598 114.263 154.269 113.743C152.939 113.223 151.895 112.511 151.137 111.608C150.378 110.705 149.922 109.682 149.769 108.54L155.688 108.207C155.798 108.608 156.003 108.957 156.301 109.256C156.608 109.554 157.004 109.784 157.49 109.946C157.985 110.108 158.564 110.189 159.229 110.189C160.277 110.189 161.142 109.933 161.824 109.422C162.514 108.919 162.86 108.037 162.86 106.776V103.324H162.642C162.395 103.929 162.02 104.47 161.517 104.947C161.014 105.425 160.388 105.8 159.638 106.072C158.896 106.345 158.044 106.482 157.081 106.482C155.649 106.482 154.337 106.149 153.144 105.484C151.959 104.811 151.009 103.771 150.293 102.365C149.585 100.95 149.232 99.1307 149.232 96.9063C149.232 94.6137 149.598 92.7259 150.331 91.2429C151.064 89.7514 152.023 88.6477 153.208 87.9318C154.401 87.2159 155.683 86.858 157.056 86.858C158.087 86.858 158.969 87.0369 159.702 87.3949C160.443 87.7443 161.053 88.196 161.53 88.75C162.007 89.304 162.369 89.8793 162.617 90.4759H162.796V87.1137H169.021V106.827C169.021 108.489 168.604 109.891 167.769 111.033C166.933 112.175 165.766 113.04 164.266 113.628C162.766 114.224 161.031 114.523 159.063 114.523ZM159.254 101.93C160.013 101.93 160.661 101.73 161.198 101.33C161.735 100.929 162.148 100.354 162.438 99.6037C162.727 98.8537 162.872 97.9546 162.872 96.9063C162.872 95.8409 162.727 94.9247 162.438 94.1577C162.156 93.3821 161.743 92.7855 161.198 92.3679C160.661 91.9503 160.013 91.7415 159.254 91.7415C158.479 91.7415 157.823 91.9546 157.286 92.3807C156.749 92.8068 156.34 93.4077 156.058 94.1833C155.786 94.9503 155.649 95.858 155.649 96.9063C155.649 97.9546 155.79 98.8537 156.071 99.6037C156.352 100.354 156.757 100.929 157.286 101.33C157.823 101.73 158.479 101.93 159.254 101.93ZM179.258 95.5512V106.75H173.007V80.5682H179.054V90.7188H179.271C179.714 89.5085 180.439 88.5625 181.444 87.8807C182.459 87.1989 183.699 86.858 185.165 86.858C186.545 86.858 187.747 87.1648 188.77 87.7784C189.792 88.3835 190.585 89.2401 191.148 90.348C191.719 91.456 192 92.7514 191.991 94.2344V106.75H185.74V95.4617C185.748 94.3708 185.476 93.5185 184.922 92.9048C184.368 92.2912 183.588 91.9844 182.582 91.9844C181.926 91.9844 181.346 92.1293 180.844 92.419C180.349 92.7003 179.961 93.1051 179.68 93.6335C179.407 94.1619 179.267 94.8012 179.258 95.5512ZM206.977 87.1137V91.7159H194.59V87.1137H206.977ZM197.185 82.4091H203.436V100.575C203.436 100.959 203.496 101.27 203.615 101.509C203.743 101.739 203.926 101.905 204.165 102.007C204.404 102.101 204.689 102.148 205.021 102.148C205.26 102.148 205.512 102.126 205.776 102.084C206.048 102.033 206.253 101.99 206.389 101.956L207.335 106.469C207.037 106.554 206.615 106.661 206.07 106.788C205.533 106.916 204.889 106.997 204.139 107.031C202.673 107.099 201.416 106.929 200.368 106.52C199.328 106.102 198.531 105.455 197.977 104.577C197.432 103.699 197.168 102.595 197.185 101.266V82.4091Z" fill="white"/>
</svg>
